<svg xmlns="http://www.w3.org/2000/svg" display="none">

    <symbol id="category-icon-1" viewBox="0 0 45 45">
        <g clip-path="url(#clip0)">
            <path d="M41.702 28.7438C39.8515 27.6754 32.7157 24.7313 27.6155 23.6678C27.3792 22.9045 26.9734 22.2152 26.4429 21.6431C27.1223 19.5796 27.7043 17.0221 28.1537 14.5795C31.0177 16.1096 33.1639 18.7653 34.0269 21.9339C34.2182 22.6363 34.9427 23.0507 35.6453 22.8594C36.3477 22.668 36.7621 21.9435 36.5707 21.241C35.4384 17.0838 32.4998 13.6492 28.6091 11.8641C28.7591 10.8739 28.8813 9.95062 28.9728 9.1444C35.0029 11.5733 39.2312 17.3076 39.675 23.8741C39.722 24.5702 40.3014 25.1035 40.9889 25.1035C41.0188 25.1035 41.049 25.1025 41.0791 25.1004C41.8055 25.0513 42.3546 24.4227 42.3055 23.6962C41.7574 15.586 36.359 8.93399 29.1636 6.39861C29.0602 2.85389 26.1466 0.00140381 22.5772 0.00140381C18.9427 0.00140381 15.9858 2.95831 15.9858 6.59276C15.9858 8.69818 17.0605 16.6295 18.7115 21.643C18.181 22.2151 17.7752 22.9042 17.5388 23.6674C15.4487 24.1019 13.0061 24.849 10.7211 25.6528C10.6028 22.3566 11.8324 19.2189 14.1568 16.8749C14.6695 16.3579 14.6659 15.5232 14.149 15.0107C13.6319 14.498 12.7974 14.5014 12.2846 15.0185C9.13745 18.1922 7.7457 22.4305 8.14262 26.6067C7.21168 26.9681 6.35246 27.3204 5.61013 27.6413C4.68939 21.1111 7.55612 14.6788 13.0128 11.0016C13.6166 10.5948 13.7761 9.77546 13.3694 9.17174C12.9625 8.56802 12.1434 8.40841 11.5395 8.81525C4.98769 13.2303 1.699 21.0727 3.13557 28.8432C0.106859 30.7078 -0.90529 34.6459 0.885834 37.7478C2.6926 40.877 6.6926 41.9829 9.85692 40.1792C9.86782 40.173 9.87881 40.1667 9.88971 40.1604C9.88979 40.1604 9.88997 40.1603 9.88997 40.1603C11.6718 39.1315 17.9012 34.2946 21.4073 30.365C22.1748 30.5396 22.9622 30.5435 23.7463 30.3652C25.1357 31.928 26.9616 33.6618 28.7693 35.243C25.9658 37.0208 22.5642 37.534 19.3967 36.6977C18.6927 36.5118 17.9714 36.9318 17.7855 37.6356C17.5997 38.3396 18.0197 39.061 18.7236 39.2469C22.82 40.3284 27.2855 39.5712 30.8584 37.0121C31.6269 37.6418 32.3563 38.2157 33.0058 38.7053C27.7718 42.824 20.6977 43.4698 14.8885 40.6212C14.235 40.3008 13.445 40.5708 13.1245 41.2245C12.804 41.8782 13.0741 42.668 13.7278 42.9885C20.6227 46.3694 29.139 45.509 35.2753 40.252C38.3826 41.9325 42.3123 40.8695 44.1147 37.7479C45.9361 34.5928 44.8574 30.5655 41.702 28.7438ZM8.57135 37.877C6.67844 38.97 4.26207 38.3227 3.16897 36.4293C2.07596 34.5364 2.72336 32.1202 4.61653 31.027C6.09547 30.1732 12.6176 27.4956 17.4349 26.3879C17.6741 27.4447 18.2305 28.382 18.9998 29.0936C15.5899 32.7574 10.0017 37.0513 8.57135 37.877ZM22.5771 27.8607C21.1233 27.8607 19.9405 26.678 19.9405 25.2242C19.9405 23.7704 21.1233 22.5876 22.5771 22.5876C24.0309 22.5876 25.2136 23.7704 25.2136 25.2242C25.2136 26.678 24.0309 27.8607 22.5771 27.8607ZM24.1383 20.1872C23.1259 19.8728 22.0305 19.8721 21.0159 20.1872C19.5702 15.4245 18.6223 8.2321 18.6223 6.59276C18.6223 4.41211 20.3964 2.63795 22.5772 2.63795C24.7578 2.63795 26.532 4.41211 26.532 6.59276C26.5319 8.23693 25.5818 15.432 24.1383 20.1872ZM41.8313 36.4294C40.7384 38.3224 38.3223 38.9701 36.4289 37.877C34.8988 36.9936 29.4497 32.6482 26.1535 29.0944C26.9225 28.3833 27.4791 27.4465 27.7185 26.3904C32.4876 27.5019 38.9417 30.1946 40.3838 31.0271C42.2769 32.1202 42.9242 34.5364 41.8313 36.4294Z"/>
        </g>
        <defs>
            <clipPath><rect width="45" height="45" fill="white"/></clipPath>
        </defs>
    </symbol> 

    <symbol id="log-in" viewBox="0 0 18 18">
        <path fill-rule="evenodd" clip-rule="evenodd" d="M6 0C5.44772 0 5 0.447715 5 1V4C5 4.55228 5.44772 5 6 5C6.55228 5 7 4.55228 7 4V2H16V16H7V14C7 13.4477 6.55228 13 6 13C5.44772 13 5 13.4477 5 14V17C5 17.5523 5.44772 18 6 18H17C17.5523 18 18 17.5523 18 17V1C18 0.447715 17.5523 0 17 0H6ZM10.7071 5.29289C10.3166 4.90237 9.68342 4.90237 9.29289 5.29289C8.90237 5.68342 8.90237 6.31658 9.29289 6.70711L10.5858 8H1C0.447715 8 0 8.44772 0 9C0 9.55228 0.447715 10 1 10H10.5858L9.29289 11.2929C8.90237 11.6834 8.90237 12.3166 9.29289 12.7071C9.68342 13.0976 10.3166 13.0976 10.7071 12.7071L13.7071 9.70711C14.0976 9.31658 14.0976 8.68342 13.7071 8.29289L10.7071 5.29289Z"/>
    </symbol> 

    <symbol id="log-out" viewBox="0 0 18 18">
        <path fill-rule="evenodd" clip-rule="evenodd" d="M9 0C8.44771 0 8 0.447715 8 1V4C8 4.55228 8.44771 5 9 5C9.55229 5 10 4.55228 10 4V2H16V16H10V14C10 13.4477 9.55229 13 9 13C8.44771 13 8 13.4477 8 14V17C8 17.5523 8.44771 18 9 18H17C17.5523 18 18 17.5523 18 17V1C18 0.447715 17.5523 0 17 0H9ZM3.29289 5.29289C3.68342 4.90237 4.31658 4.90237 4.70711 5.29289C5.09763 5.68342 5.09763 6.31658 4.70711 6.70711L3.41421 8H13C13.5523 8 14 8.44772 14 9C14 9.55228 13.5523 10 13 10H3.41421L4.70711 11.2929C5.09763 11.6834 5.09763 12.3166 4.70711 12.7071C4.31658 13.0976 3.68342 13.0976 3.29289 12.7071L0.292894 9.70711C-0.0976312 9.31658 -0.0976312 8.68342 0.292894 8.29289L3.29289 5.29289Z"/>
    </symbol> 

    <symbol id="user" viewBox="0 0 16 17">
        <path fill-rule="evenodd" clip-rule="evenodd" d="M11 5C11 6.65685 9.65685 8 8 8C6.34315 8 5 6.65685 5 5C5 3.34315 6.34315 2 8 2C9.65685 2 11 3.34315 11 5ZM13 5C13 7.76142 10.7614 10 8 10C5.23858 10 3 7.76142 3 5C3 2.23858 5.23858 0 8 0C10.7614 0 13 2.23858 13 5ZM3.02448 10.2903C3.16276 10.1835 3.33034 10.1177 3.50495 10.1118C4.01604 10.0945 4.27556 10.2136 4.47518 10.4393C4.86035 10.8748 4.60724 11.5818 4.1542 11.9462C3.32132 12.616 2.67734 13.4973 2.30604 14.4998H13.693C13.3218 13.4975 12.678 12.6164 11.8454 11.9466C11.3924 11.5822 11.1394 10.875 11.5246 10.4395C11.7243 10.2137 11.9838 10.0947 12.4948 10.1121C12.6693 10.1181 12.8368 10.1839 12.975 10.2906C14.5963 11.5427 15.7152 13.3928 15.9862 15.502C16.0566 16.0498 15.6021 16.4998 15.0499 16.4998H0.949191C0.396906 16.4998 -0.0575638 16.0498 0.0128305 15.502C0.283899 13.3927 1.40298 11.5424 3.02448 10.2903Z"/>
    </symbol> 

    <symbol id="basket" viewBox="0 0 18 15">
        <path fill-rule="evenodd" clip-rule="evenodd" d="M0 1C0 0.447715 0.447715 0 1 0H4C4.44361 0 4.83419 0.292251 4.95937 0.717834L7.24824 8.5H14.2192L15.2192 4.5H9C8.44772 4.5 8 4.05228 8 3.5C8 2.94772 8.44772 2.5 9 2.5H16.5C16.8079 2.5 17.0987 2.64187 17.2882 2.88459C17.4777 3.1273 17.5448 3.44379 17.4701 3.74254L15.9701 9.74254C15.8589 10.1877 15.4589 10.5 15 10.5H6.5C6.05639 10.5 5.66581 10.2077 5.54063 9.78217L3.25176 2H1C0.447715 2 0 1.55228 0 1ZM8 13C8 14.1046 7.10457 15 6 15C4.89543 15 4 14.1046 4 13C4 11.8954 4.89543 11 6 11C7.10457 11 8 11.8954 8 13ZM15 15C16.1046 15 17 14.1046 17 13C17 11.8954 16.1046 11 15 11C13.8954 11 13 11.8954 13 13C13 14.1046 13.8954 15 15 15Z"/>
    </symbol> 

    <symbol id="mail" viewBox="0 0 18 14">
        <path fill-rule="evenodd" clip-rule="evenodd" d="M2 2.63393V2H16V2.63393C15.9815 2.64462 15.9633 2.65595 15.9453 2.66795L9 7.29815L2.0547 2.66795C2.0367 2.65595 2.01846 2.64462 2 2.63393ZM2 5.03518V12H16V5.03518L9.5547 9.33205C9.2188 9.55598 8.7812 9.55598 8.4453 9.33205L2 5.03518ZM0 1C0 0.447716 0.447715 0 1 0H17C17.5523 0 18 0.447715 18 1V13C18 13.5523 17.5523 14 17 14H1C0.447716 14 0 13.5523 0 13V1Z" fill="white"/>
    </symbol> 

    <symbol id="map" viewBox="0 0 12 19">
        <path fill-rule="evenodd" clip-rule="evenodd" d="M2 6.33333C2 3.70376 3.85715 2 6 2C8.14285 2 10 3.70376 10 6.33333C10 6.68773 9.87295 7.32872 9.537 8.26353C9.21546 9.15824 8.75813 10.1732 8.23167 11.22C7.51439 12.6464 6.70039 14.0699 6 15.2372C5.29961 14.0699 4.48561 12.6464 3.76833 11.22C3.24187 10.1732 2.78454 9.15824 2.463 8.26353C2.12705 7.32872 2 6.68773 2 6.33333ZM6 0C2.68629 0 0 2.66667 0 6.33333C0 9.1552 3.5537 15.1359 5.19125 17.742C5.5709 18.3462 6.4291 18.3462 6.80875 17.742C8.4463 15.1359 12 9.1552 12 6.33333C12 2.66667 9.31371 0 6 0ZM6 8C7.10457 8 8 7.10457 8 6C8 4.89543 7.10457 4 6 4C4.89543 4 4 4.89543 4 6C4 7.10457 4.89543 8 6 8Z" fill="white"/>
    </symbol> 

    <symbol id="mobile" viewBox="0 0 12 18">
        <path fill-rule="evenodd" clip-rule="evenodd" d="M10 2L7.86622 2C7.69331 2.2989 7.37014 2.5 7 2.5H5C4.62986 2.5 4.30669 2.2989 4.13378 2L2 2L2 16H10L10 2ZM12 1C12 0.447716 11.5523 0 11 0H1C0.447716 0 0 0.447716 0 1V17C0 17.5523 0.447715 18 1 18H11C11.5523 18 12 17.5523 12 17L12 1ZM7 13C7 13.5523 6.55228 14 6 14C5.44772 14 5 13.5523 5 13C5 12.4477 5.44772 12 6 12C6.55228 12 7 12.4477 7 13Z" fill="white"/>
    </symbol> 

    <symbol id="personal-page-user" viewBox="0 0 32 34">
        <path fill-rule="evenodd" clip-rule="evenodd" d="M22.0033 10.0058C22.0033 13.3227 19.3144 16.0116 15.9975 16.0116C12.6806 16.0116 9.99174 13.3227 9.99174 10.0058C9.99174 6.68888 12.6806 4 15.9975 4C19.3144 4 22.0033 6.68888 22.0033 10.0058ZM26.0033 10.0058C26.0033 15.5318 21.5236 20.0116 15.9975 20.0116C10.4715 20.0116 5.99174 15.5318 5.99174 10.0058C5.99174 4.47974 10.4715 0 15.9975 0C21.5236 0 26.0033 4.47974 26.0033 10.0058ZM6.25385 20.431C6.39389 20.3265 6.56127 20.2623 6.73552 20.2496C8.52994 20.1192 8.9239 20.7157 9.53967 21.7867C9.82945 22.2907 9.65456 22.946 9.17096 23.2687C7.0825 24.6622 5.47107 26.6739 4.60351 29.0163H27.3906C26.5232 26.6742 24.9122 24.6628 22.8242 23.2694C22.3405 22.9466 22.1658 22.2911 22.4557 21.7871C23.072 20.7158 23.4658 20.1194 25.2598 20.2503C25.434 20.263 25.6013 20.3273 25.7412 20.4317C29.1003 22.9383 31.4255 26.7095 31.9797 31.0218C32.1206 32.118 31.2111 33.0187 30.1059 33.0187H1.88824C0.783034 33.0187 -0.126431 32.118 0.0144389 31.0218C0.56866 26.7091 2.89432 22.9376 6.25385 20.431Z"/>
    </symbol> 

    <symbol id="personal-page-basket" viewBox="0 0 32 28">
        <path fill-rule="evenodd" clip-rule="evenodd" d="M0 2C0 0.89543 0.89543 0 2 0H7.4C8.28722 0 9.06839 0.584502 9.31873 1.43567L13.3965 15.3H25.6384L27.3384 8.5H16.4C15.2954 8.5 14.4 7.60457 14.4 6.5C14.4 5.39543 15.2954 4.5 16.4 4.5H29.9C30.5159 4.5 31.0974 4.78374 31.4764 5.26917C31.8554 5.75461 31.9896 6.38759 31.8403 6.98507L29.1403 17.7851C28.9177 18.6754 28.1177 19.3 27.2 19.3H11.9C11.0128 19.3 10.2316 18.7155 9.98127 17.8643L5.90352 4H2C0.89543 4 0 3.10457 0 2ZM14.6002 23.6C14.6002 25.5882 12.9884 27.2 11.0002 27.2C9.012 27.2 7.40022 25.5882 7.40022 23.6C7.40022 21.6117 9.012 20 11.0002 20C12.9884 20 14.6002 21.6117 14.6002 23.6ZM27.1999 27.2C29.1881 27.2 30.7999 25.5882 30.7999 23.6C30.7999 21.6117 29.1881 20 27.1999 20C25.2116 20 23.5999 21.6117 23.5999 23.6C23.5999 25.5882 25.2116 27.2 27.1999 27.2Z"/>
    </symbol> 

    <symbol id="key" viewBox="0 0 30 39">
        <path fill-rule="evenodd" clip-rule="evenodd" d="M8.42857 10.5714C8.42857 6.94213 11.3707 4 15 4C17.7547 4 20.1182 5.6956 21.0945 8.10757C21.5089 9.13144 22.6749 9.62547 23.6988 9.21102C24.7227 8.79657 25.2167 7.63058 24.8022 6.60671C23.2355 2.73619 19.4397 0 15 0C9.16156 0 4.42857 4.73299 4.42857 10.5714V14.8571H2C0.895431 14.8571 0 15.7526 0 16.8571V36.4286C0 37.5331 0.89543 38.4286 2 38.4286H28C29.1046 38.4286 30 37.5331 30 36.4286V16.8571C30 15.7526 29.1046 14.8571 28 14.8571H8.42857V10.5714ZM5.68483 18.8571C5.91474 18.9493 6.16573 19 6.42857 19C6.69141 19 6.9424 18.9493 7.17231 18.8571H26V34.4286H4V18.8571H5.68483Z"/>
    </symbol> 

    <symbol id="catalog-list" viewBox="0 0 30 30">
        <path fill-rule="evenodd" clip-rule="evenodd" d="M4 9.33333V4H9.33333V9.33333H4ZM0 0.999999C0 0.447714 0.447715 0 1 0H12.3333C12.8856 0 13.3333 0.447715 13.3333 1V12.3333C13.3333 12.8856 12.8856 13.3333 12.3333 13.3333H0.999999C0.447714 13.3333 0 12.8856 0 12.3333V0.999999ZM20.6667 9.33333V4H26V9.33333H20.6667ZM16.6667 0.999999C16.6667 0.447714 17.1144 0 17.6667 0H29C29.5523 0 30 0.447715 30 1V12.3333C30 12.8856 29.5523 13.3333 29 13.3333H17.6667C17.1144 13.3333 16.6667 12.8856 16.6667 12.3333V0.999999ZM4 20.6667V26H9.33333V20.6667H4ZM1 16.6667C0.447715 16.6667 0 17.1144 0 17.6667V29C0 29.5523 0.447714 30 0.999999 30H12.3333C12.8856 30 13.3333 29.5523 13.3333 29V17.6667C13.3333 17.1144 12.8856 16.6667 12.3333 16.6667H1ZM20.6667 26V20.6667H26V26H20.6667ZM16.6667 17.6667C16.6667 17.1144 17.1144 16.6667 17.6667 16.6667H29C29.5523 16.6667 30 17.1144 30 17.6667V29C30 29.5523 29.5523 30 29 30H17.6667C17.1144 30 16.6667 29.5523 16.6667 29V17.6667Z"/>
    </symbol> 

    <symbol id="personal-page-log-out" viewBox="0 0 31 31">
        <path fill-rule="evenodd" clip-rule="evenodd" d="M15.3333 0C14.2288 0 13.3333 0.89543 13.3333 2V7C13.3333 8.10457 14.2288 9 15.3333 9C16.4379 9 17.3333 8.10457 17.3333 7V4H26.6667V26.6667H17.3333V23.6667C17.3333 22.5621 16.4379 21.6667 15.3333 21.6667C14.2288 21.6667 13.3333 22.5621 13.3333 23.6667V28.6667C13.3333 29.7712 14.2288 30.6667 15.3333 30.6667H28.6667C29.7712 30.6667 30.6667 29.7712 30.6667 28.6667V2C30.6667 0.89543 29.7712 0 28.6667 0H15.3333ZM5.58579 8.91912C6.36684 8.13807 7.63317 8.13807 8.41421 8.91912C9.19526 9.70017 9.19526 10.9665 8.41421 11.7475L6.82843 13.3333H22C23.1046 13.3333 24 14.2288 24 15.3333C24 16.4379 23.1046 17.3333 22 17.3333H6.82843L8.41421 18.9191C9.19526 19.7002 9.19526 20.9665 8.41421 21.7475C7.63317 22.5286 6.36684 22.5286 5.58579 21.7475L0.585787 16.7475C-0.195261 15.9665 -0.195261 14.7002 0.585787 13.9191L5.58579 8.91912Z"/>
    </symbol> 

    <symbol id="order-list" viewBox="0 0 612 612">
        <path d="M63.311,73.862C28.342,73.862,0,102.204,0,137.172s28.342,63.311,63.311,63.311c34.968,0,63.31-28.342,63.31-63.311
				S98.279,73.862,63.311,73.862z M63.311,242.689C28.342,242.689,0,271.032,0,306c0,34.969,28.342,63.311,63.311,63.311
				c34.968,0,63.31-28.342,63.31-63.311C126.621,271.032,98.279,242.689,63.311,242.689z M63.311,411.518
				C28.342,411.518,0,439.859,0,474.827c0,34.969,28.342,63.311,63.311,63.311c34.968,0,63.31-28.342,63.31-63.311
				C126.621,439.859,98.279,411.518,63.311,411.518z M232.138,179.379h337.655c23.319,0,42.207-18.888,42.207-42.207
				s-18.888-42.207-42.207-42.207H232.138c-23.319,0-42.207,18.888-42.207,42.207S208.819,179.379,232.138,179.379z
				 M569.793,263.793H232.138c-23.319,0-42.207,18.888-42.207,42.207s18.888,42.207,42.207,42.207h337.655
				C593.112,348.207,612,329.319,612,306S593.112,263.793,569.793,263.793z M569.793,432.621H232.138
				c-23.319,0-42.207,18.887-42.207,42.206s18.888,42.207,42.207,42.207h337.655c23.319,0,42.207-18.888,42.207-42.207
				S593.112,432.621,569.793,432.621z"/>
    </symbol> 

</svg>