<svg width="52" height="34" viewBox="0 0 52 34" fill="none" xmlns="http://www.w3.org/2000/svg">
<path fill-rule="evenodd" clip-rule="evenodd" d="M16.2734 26.3933C16.6059 26.2182 17.1712 25.9884 17.7699 25.9884C19.1442 25.9884 19.887 26.9291 19.887 28.6795C19.887 30.7243 18.8897 31.7197 17.2823 31.7197C16.6946 31.7197 15.7857 31.5338 15.1205 31.1833V23.5496L16.2734 23.2761V26.3933ZM16.2626 30.7789C16.617 30.9321 17.0052 30.9538 17.2824 30.9538C18.1027 30.9538 18.7234 30.4509 18.7234 28.6796C18.7234 27.2902 18.2134 26.8418 17.4708 26.8418C17.0272 26.8418 16.706 26.9621 16.2626 27.2027V30.7789ZM4.45617 26.1304H4.53381L6.04103 31.5883H7.2381L9.03409 23.8336H7.73704L6.60643 29.6195H6.52919L4.98805 23.8336H4.00154L2.56059 29.6195H2.48295L1.24138 23.8336H0L1.7958 31.5883H2.99268L4.45617 26.1304ZM13.9461 31.216V30.3848C13.3364 30.7458 12.7823 30.9535 12.1838 30.9535C11.042 30.9535 10.499 30.3736 10.499 29.0614H14.1123V28.6569C14.1123 26.8744 13.2587 25.9883 11.8735 25.9883C10.2108 25.9883 9.35719 27.1914 9.35719 28.8536C9.35719 30.5819 10.122 31.7195 11.984 31.7195C12.7823 31.7195 13.4473 31.5007 13.9461 31.216ZM13.0594 28.3291H10.5216C10.6431 27.2356 11.1638 26.7214 11.8404 26.7214C12.4389 26.7214 13.0045 27.1805 13.0594 28.3291ZM24.9862 29.9475H24.9306L22.4476 23.8335H21.1065V31.5882H22.1041V26.0978H22.2037L24.4653 31.5882H25.1745L27.4359 25.9665H27.5359V31.5882H28.7329V23.8335H27.3582L24.9862 29.9475ZM29.9525 28.8536C29.9525 26.9396 31.0166 25.9883 32.4797 25.9883C33.943 25.9883 35.0074 26.9396 35.0074 28.8536C35.0074 30.7241 33.9985 31.7195 32.4797 31.7195C30.9609 31.7195 29.9525 30.7241 29.9525 28.8536ZM33.8431 28.8537C33.8431 27.3774 33.2332 26.7542 32.4795 26.7542C31.7479 26.7542 31.116 27.3774 31.116 28.8537C31.116 30.3526 31.6928 30.9536 32.4795 30.9536C33.2665 30.9536 33.8431 30.3526 33.8431 28.8537ZM38.886 25.9883C37.6119 25.9883 36.5585 26.5022 36.0598 26.7976V31.5882H37.2127V27.257C37.5562 27.0605 38.1216 26.8632 38.5653 26.8632C39.1305 26.8632 39.5624 27.0164 39.5624 27.8804V31.5882H40.7151V27.6286C40.7151 26.5022 40.2168 25.9883 38.886 25.9883ZM46.3349 30.3848V31.216C45.8363 31.5007 45.1715 31.7195 44.373 31.7195C42.5111 31.7195 41.7462 30.5819 41.7462 28.8536C41.7462 27.1914 42.6 25.9883 44.2624 25.9883C45.6483 25.9883 46.5021 26.8744 46.5021 28.6569V29.0614H42.8883C42.8883 30.3736 43.4314 30.9535 44.573 30.9535C45.1715 30.9535 45.7257 30.7458 46.3349 30.3848ZM42.9105 28.3291H45.4487C45.3936 27.1805 44.8278 26.7214 44.2293 26.7214C43.5529 26.7214 43.0326 27.2356 42.9105 28.3291ZM52 26.1743H50.8139L49.5497 30.1989H49.4837L48.0649 26.1743H46.8454L48.9737 31.6429C48.7073 32.452 48.2423 33.0431 47.4885 33.0431V33.9395C48.7626 33.9395 49.439 33.1524 49.9934 31.6429L52 26.1743Z" fill="#0068A3"/>
<path fill-rule="evenodd" clip-rule="evenodd" d="M25.2567 0.90918C26.7821 0.90918 28.2268 1.25968 29.5135 1.88195C29.7156 1.97654 29.9171 2.08061 30.1193 2.19551L29.2249 2.98529L27.8812 1.61444L25.6133 3.61028L24.2662 2.15972L20.0416 5.91696L22.75 8.86198L21.6857 9.78562L24.3533 12.7351L23.2952 13.6566L27.1072 17.8431L29.37 15.7877L31.3263 17.9903C30.9372 18.2887 30.5133 18.5696 30.0463 18.8292C28.6316 19.6252 26.9966 20.0809 25.2567 20.0809C19.9057 20.0809 15.5415 15.7743 15.5415 10.4953C15.5415 5.21519 19.9057 0.90918 25.2567 0.90918ZM23.4862 9.88914L25.7964 7.83643L27.8767 10.1164L25.5667 12.1684L23.4862 9.88914ZM27.4395 11.7759L25.1291 13.828L27.2098 16.108L29.52 14.0553L27.4395 11.7759ZM21.8332 5.99671L24.1434 3.94458L26.2231 6.22399L23.9129 8.27612L21.8332 5.99671ZM27.8054 3.35303L26.0727 4.89198L27.6326 6.60212L29.3653 5.06259L27.8054 3.35303ZM29.1512 11.9426L30.8844 10.4031L32.4444 12.113L30.7117 13.6522L29.1512 11.9426ZM32.4078 13.856L30.6755 15.3957L32.2354 17.1047L33.9681 15.5655L32.4078 13.856ZM31.3732 7.48124L32.5283 6.45508L33.5682 7.59479L32.4136 8.62075L31.3732 7.48124ZM31.0524 3.06885L29.8973 4.09482L30.9372 5.23452L32.0925 4.20855L31.0524 3.06885ZM32.8499 10.8677L34.005 9.84155L35.045 10.9811L33.8899 12.0072L32.8499 10.8677ZM29.402 6.79028L27.6696 8.33001L29.2299 10.039L30.962 8.49984L29.402 6.79028Z" fill="#0068A3"/>
</svg>
