<svg viewBox="0 0 330 306" xmlns="http://www.w3.org/2000/svg">
<g clip-path="url(#clip0)">
<path d="M279.515 213.68L279.515 116.737C279.515 114.595 277.783 112.864 275.641 112.864L120.529 112.864C118.386 112.863 116.655 114.595 116.655 116.737L116.655 213.68C116.655 214.748 117.088 215.718 117.789 216.419C118.491 217.121 119.46 217.554 120.529 217.554L275.641 217.554C277.783 217.554 279.515 215.822 279.515 213.68ZM124.403 209.806L124.403 120.612L271.767 120.612L271.767 209.806L124.403 209.806Z" fill="#ED716E"/>
<path d="M279.285 115.417C278.726 113.889 277.271 112.867 275.641 112.864L120.532 112.867C118.899 112.867 117.444 113.889 116.888 115.42C116.373 116.845 116.734 118.423 117.789 119.478C117.872 119.56 117.959 119.637 118.047 119.713L195.603 184.343C197.041 185.541 199.129 185.54 200.567 184.343L278.123 119.713C279.375 118.669 279.838 116.951 279.285 115.417ZM198.082 176.324L131.23 120.612L264.939 120.612L198.082 176.324Z" fill="#ED716E"/>
<path d="M279.512 213.677L279.512 116.735C279.515 115.231 278.641 113.864 277.282 113.229C275.92 112.59 274.312 112.796 273.156 113.76L208.375 167.746C207.438 168.529 206.923 169.713 206.989 170.935C207.041 171.897 207.449 172.792 208.117 173.461C208.298 173.642 208.498 173.809 208.715 173.943L273.495 216.904C274.684 217.694 276.208 217.765 277.468 217.091C278.729 216.416 279.514 215.105 279.512 213.677ZM217.336 170.368L271.764 125.009L271.767 206.464L217.336 170.368Z" fill="#ED716E"/>
<path d="M189.178 170.937C189.246 169.718 188.731 168.54 187.791 167.749L123.011 113.763C121.854 112.798 120.246 112.593 118.885 113.231C117.526 113.867 116.655 115.237 116.655 116.738L116.655 213.68C116.655 214.721 117.074 215.705 117.789 216.42C118.055 216.686 118.359 216.913 118.696 217.102C119.953 217.773 121.479 217.705 122.668 216.916L187.449 173.954C188.471 173.277 189.112 172.159 189.178 170.937ZM124.405 206.461L124.405 125.009L178.835 170.365L124.405 206.461Z" fill="#ED716E"/>
<path d="M67.7126 184.387C67.7123 182.244 65.9808 180.513 63.8387 180.513L25.4826 180.513C23.3401 180.513 21.6086 182.245 21.6087 184.387C21.6086 185.455 22.0418 186.425 22.743 187.126C23.4442 187.828 24.4141 188.261 25.4826 188.261L63.8387 188.261C65.9811 188.261 67.7126 186.53 67.7126 184.387Z" fill="#ED716E"/>
<path d="M92.3699 165.209C92.3696 163.066 90.6381 161.335 88.496 161.335L6.30446 161.335C4.16202 161.335 2.43054 163.067 2.43054 165.209C2.43054 166.277 2.86365 167.247 3.56485 167.948C4.26637 168.65 5.23597 169.083 6.30446 169.083L88.496 169.083C90.6385 169.082 92.3699 167.351 92.3699 165.209Z" fill="#ED716E"/>
<path d="M40.315 146.031C40.3147 143.888 38.5832 142.157 36.4411 142.157L25.4823 142.157C23.3398 142.157 21.6083 143.888 21.6083 146.03C21.6083 147.099 22.0414 148.069 22.7426 148.77C23.4442 149.472 24.4138 149.904 25.4823 149.904L36.4414 149.904C38.5839 149.905 40.3154 148.173 40.315 146.031Z" fill="#ED716E"/>
<path d="M73.1919 146.031C73.1916 143.888 71.4601 142.157 69.318 142.157L52.8795 142.157C50.7367 142.157 49.0052 143.888 49.0056 146.031C49.0056 147.099 49.4387 148.069 50.1399 148.77C50.8414 149.472 51.811 149.905 52.8795 149.905L69.318 149.905C71.4607 149.905 73.1922 148.173 73.1919 146.031Z" fill="#ED716E"/>
<path d="M111.548 146.031C111.548 143.888 109.816 142.157 107.674 142.157L85.7566 142.157C83.6138 142.157 81.8824 143.888 81.8827 146.031C81.8827 147.099 82.3158 148.069 83.017 148.77C83.7185 149.472 84.6881 149.905 85.7566 149.905L107.674 149.905C109.816 149.905 111.548 148.173 111.548 146.031Z" fill="#ED716E"/>
<path d="M119.767 165.209C119.767 163.066 118.036 161.334 115.893 161.335L104.934 161.335C102.791 161.335 101.06 163.066 101.06 165.209C101.06 166.277 101.493 167.247 102.194 167.948C102.896 168.65 103.865 169.082 104.934 169.082L115.893 169.083C118.036 169.083 119.767 167.351 119.767 165.209Z" fill="#ED716E"/>
<path d="M100.589 184.387C100.589 182.244 98.8573 180.513 96.7148 180.513L80.2764 180.513C78.1336 180.513 76.4021 182.245 76.4024 184.387C76.4024 185.456 76.8356 186.425 77.5368 187.127C78.2383 187.828 79.2079 188.261 80.2764 188.261L96.7148 188.261C98.8576 188.261 100.589 186.529 100.589 184.387Z" fill="#ED716E"/>
</g>
<defs>
<clipPath id="clip0">
<rect width="232.475" height="232.475" fill="white" transform="translate(165.208 0.823853) rotate(45)"/>
</clipPath>
</defs>
</svg>
