<svg width="19" height="17" viewBox="0 0 19 17" fill="none" xmlns="http://www.w3.org/2000/svg">
<path fill-rule="evenodd" clip-rule="evenodd" d="M1.81777 2.85738C2.08979 2.44275 3.58853 0.934606 4.65804 0.980135C4.97775 1.00453 5.26036 1.18258 5.48999 1.38908C6.01724 1.86307 7.52657 3.65576 7.61224 4.033C7.82067 4.95821 6.62309 5.49155 6.98961 6.42407C7.924 8.52896 9.53402 10.0111 11.8214 10.8704C12.8335 11.2078 13.4129 10.1054 14.4179 10.2981C14.8268 10.3769 16.7751 11.7664 17.29 12.2518C17.5134 12.4623 17.7077 12.7233 17.7342 13.0176C17.774 14.0542 16.0341 15.4534 15.695 15.6323C14.8949 16.1591 13.8509 16.1502 12.5783 15.6054C9.02708 14.2453 3.35184 9.11921 1.84692 5.72651C1.27109 4.56146 1.23135 3.59397 1.81777 2.85738Z" stroke="black" stroke-opacity="0.2" stroke-width="1.5" stroke-linecap="round" stroke-linejoin="round"/>
</svg>
