<svg width="32" height="34" viewBox="0 0 32 34" fill="none" xmlns="http://www.w3.org/2000/svg">
<path fill-rule="evenodd" clip-rule="evenodd" d="M22.0033 10.0058C22.0033 13.3227 19.3144 16.0116 15.9975 16.0116C12.6806 16.0116 9.99174 13.3227 9.99174 10.0058C9.99174 6.68888 12.6806 4 15.9975 4C19.3144 4 22.0033 6.68888 22.0033 10.0058ZM26.0033 10.0058C26.0033 15.5318 21.5236 20.0116 15.9975 20.0116C10.4715 20.0116 5.99174 15.5318 5.99174 10.0058C5.99174 4.47974 10.4715 0 15.9975 0C21.5236 0 26.0033 4.47974 26.0033 10.0058ZM6.25385 20.431C6.39389 20.3265 6.56127 20.2623 6.73552 20.2496C8.52994 20.1192 8.9239 20.7157 9.53967 21.7867C9.82945 22.2907 9.65456 22.946 9.17096 23.2687C7.0825 24.6622 5.47107 26.6739 4.60351 29.0163H27.3906C26.5232 26.6742 24.9122 24.6628 22.8242 23.2694C22.3405 22.9466 22.1658 22.2911 22.4557 21.7871C23.072 20.7158 23.4658 20.1194 25.2598 20.2503C25.434 20.263 25.6013 20.3273 25.7412 20.4317C29.1003 22.9383 31.4255 26.7095 31.9797 31.0218C32.1206 32.118 31.2111 33.0187 30.1059 33.0187H1.88824C0.783034 33.0187 -0.126431 32.118 0.0144389 31.0218C0.56866 26.7091 2.89432 22.9376 6.25385 20.431Z" fill="#D83631"/>
</svg>
