<svg width="20" height="20" viewBox="0 0 20 20" fill="none" xmlns="http://www.w3.org/2000/svg">
<path fill-rule="evenodd" clip-rule="evenodd" d="M2.49166 4.06126C2.75527 3.62395 4.20853 2.03647 5.24412 2.08439C5.55395 2.11092 5.82782 2.29748 6.05035 2.51485H6.0512C6.5613 3.01463 8.02483 4.90078 8.10699 5.29787C8.30983 6.27175 7.14842 6.83315 7.50361 7.81473C8.40911 10.0304 9.96935 11.5905 12.186 12.495C13.1669 12.851 13.7283 11.6906 14.7023 11.8926C15.0994 11.9756 16.9866 13.4381 17.4856 13.949V13.949C17.7021 14.1707 17.8904 14.4454 17.9161 14.7552C17.9546 15.8463 16.2685 17.3191 15.9399 17.5074C15.1645 18.0628 14.1528 18.0525 12.9195 17.4791C9.47809 16.0474 3.9783 10.6517 2.51991 7.08047C1.96188 5.85413 1.92422 4.83574 2.49166 4.06126Z" stroke="#626262" stroke-width="1.5" stroke-linecap="round" stroke-linejoin="round"/>
<path d="M12.1378 2.29166C15.2228 2.63416 17.6587 5.06749 18.0053 8.15166" stroke="#626262" stroke-width="1.5" stroke-linecap="round" stroke-linejoin="round"/>
<path d="M12.1378 5.24416C13.6128 5.53166 14.7653 6.68416 15.0528 8.15916" stroke="#626262" stroke-width="1.5" stroke-linecap="round" stroke-linejoin="round"/>
</svg>
