<svg width="30" height="30" viewBox="0 0 30 30" fill="none" xmlns="http://www.w3.org/2000/svg">
<path fill-rule="evenodd" clip-rule="evenodd" d="M4 9.33333V4H9.33333V9.33333H4ZM0 0.999999C0 0.447714 0.447715 0 1 0H12.3333C12.8856 0 13.3333 0.447715 13.3333 1V12.3333C13.3333 12.8856 12.8856 13.3333 12.3333 13.3333H0.999999C0.447714 13.3333 0 12.8856 0 12.3333V0.999999ZM20.6667 9.33333V4H26V9.33333H20.6667ZM16.6667 0.999999C16.6667 0.447714 17.1144 0 17.6667 0H29C29.5523 0 30 0.447715 30 1V12.3333C30 12.8856 29.5523 13.3333 29 13.3333H17.6667C17.1144 13.3333 16.6667 12.8856 16.6667 12.3333V0.999999ZM4 20.6667V26H9.33333V20.6667H4ZM1 16.6667C0.447715 16.6667 0 17.1144 0 17.6667V29C0 29.5523 0.447714 30 0.999999 30H12.3333C12.8856 30 13.3333 29.5523 13.3333 29V17.6667C13.3333 17.1144 12.8856 16.6667 12.3333 16.6667H1ZM20.6667 26V20.6667H26V26H20.6667ZM16.6667 17.6667C16.6667 17.1144 17.1144 16.6667 17.6667 16.6667H29C29.5523 16.6667 30 17.1144 30 17.6667V29C30 29.5523 29.5523 30 29 30H17.6667C17.1144 30 16.6667 29.5523 16.6667 29V17.6667Z" fill="#D83631"/>
</svg>
