<svg width="30" height="39" viewBox="0 0 30 39" fill="none" xmlns="http://www.w3.org/2000/svg">
<path fill-rule="evenodd" clip-rule="evenodd" d="M8.42857 10.5714C8.42857 6.94213 11.3707 4 15 4C17.7547 4 20.1182 5.6956 21.0945 8.10757C21.5089 9.13144 22.6749 9.62547 23.6988 9.21102C24.7227 8.79657 25.2167 7.63058 24.8022 6.60671C23.2355 2.73619 19.4397 0 15 0C9.16156 0 4.42857 4.73299 4.42857 10.5714V14.8571H2C0.895431 14.8571 0 15.7526 0 16.8571V36.4286C0 37.5331 0.89543 38.4286 2 38.4286H28C29.1046 38.4286 30 37.5331 30 36.4286V16.8571C30 15.7526 29.1046 14.8571 28 14.8571H8.42857V10.5714ZM5.68483 18.8571C5.91474 18.9493 6.16573 19 6.42857 19C6.69141 19 6.9424 18.9493 7.17231 18.8571H26V34.4286H4V18.8571H5.68483Z" fill="white"/>
</svg>
