<svg width="32" height="28" viewBox="0 0 32 28" fill="none" xmlns="http://www.w3.org/2000/svg">
<path fill-rule="evenodd" clip-rule="evenodd" d="M0 2C0 0.89543 0.89543 0 2 0H7.4C8.28722 0 9.06839 0.584502 9.31873 1.43567L13.3965 15.3H25.6384L27.3384 8.5H16.4C15.2954 8.5 14.4 7.60457 14.4 6.5C14.4 5.39543 15.2954 4.5 16.4 4.5H29.9C30.5159 4.5 31.0974 4.78374 31.4764 5.26917C31.8554 5.75461 31.9896 6.38759 31.8403 6.98507L29.1403 17.7851C28.9177 18.6754 28.1177 19.3 27.2 19.3H11.9C11.0128 19.3 10.2316 18.7155 9.98127 17.8643L5.90352 4H2C0.89543 4 0 3.10457 0 2ZM14.6002 23.6C14.6002 25.5882 12.9884 27.2 11.0002 27.2C9.012 27.2 7.40022 25.5882 7.40022 23.6C7.40022 21.6117 9.012 20 11.0002 20C12.9884 20 14.6002 21.6117 14.6002 23.6ZM27.1999 27.2C29.1881 27.2 30.7999 25.5882 30.7999 23.6C30.7999 21.6117 29.1881 20 27.1999 20C25.2116 20 23.5999 21.6117 23.5999 23.6C23.5999 25.5882 25.2116 27.2 27.1999 27.2Z" fill="#D83631"/>
</svg>
