<svg width="31" height="31" viewBox="0 0 31 31" fill="none" xmlns="http://www.w3.org/2000/svg">
<path fill-rule="evenodd" clip-rule="evenodd" d="M15.3333 0C14.2288 0 13.3333 0.89543 13.3333 2V7C13.3333 8.10457 14.2288 9 15.3333 9C16.4379 9 17.3333 8.10457 17.3333 7V4H26.6667V26.6667H17.3333V23.6667C17.3333 22.5621 16.4379 21.6667 15.3333 21.6667C14.2288 21.6667 13.3333 22.5621 13.3333 23.6667V28.6667C13.3333 29.7712 14.2288 30.6667 15.3333 30.6667H28.6667C29.7712 30.6667 30.6667 29.7712 30.6667 28.6667V2C30.6667 0.89543 29.7712 0 28.6667 0H15.3333ZM5.58579 8.91912C6.36684 8.13807 7.63317 8.13807 8.41421 8.91912C9.19526 9.70017 9.19526 10.9665 8.41421 11.7475L6.82843 13.3333H22C23.1046 13.3333 24 14.2288 24 15.3333C24 16.4379 23.1046 17.3333 22 17.3333H6.82843L8.41421 18.9191C9.19526 19.7002 9.19526 20.9665 8.41421 21.7475C7.63317 22.5286 6.36684 22.5286 5.58579 21.7475L0.585787 16.7475C-0.195261 15.9665 -0.195261 14.7002 0.585787 13.9191L5.58579 8.91912Z" fill="#D83631"/>
</svg>
