<svg width="38" height="29" viewBox="0 0 38 29" fill="none" xmlns="http://www.w3.org/2000/svg">
<path fill-rule="evenodd" clip-rule="evenodd" d="M10.4713 25.4607V26.9714V28.4821H9.80994V28.1153C9.60018 28.3874 9.2819 28.5581 8.84926 28.5581C7.99637 28.5581 7.32775 27.8946 7.32775 26.9714C7.32775 26.0489 7.99637 25.3848 8.84926 25.3848C9.2819 25.3848 9.60018 25.5555 9.80994 25.8275V25.4607H10.4713ZM8.93156 26.0041C8.35909 26.0041 8.00875 26.4404 8.00875 26.9714C8.00875 27.5025 8.35909 27.9388 8.93156 27.9388C9.47855 27.9388 9.84782 27.5213 9.84782 26.9714C9.84782 26.4215 9.47855 26.0041 8.93156 26.0041ZM32.8197 26.9714C32.8197 26.4404 33.1701 26.0041 33.7425 26.0041C34.2903 26.0041 34.6588 26.4215 34.6588 26.9714C34.6588 27.5213 34.2903 27.9388 33.7425 27.9388C33.1701 27.9388 32.8197 27.5025 32.8197 26.9714ZM35.283 24.2474V26.9714V28.4821H34.621V28.1153C34.4112 28.3874 34.0929 28.5581 33.6603 28.5581C32.8074 28.5581 32.1388 27.8946 32.1388 26.9714C32.1388 26.0489 32.8074 25.3848 33.6603 25.3848C34.0929 25.3848 34.4112 25.5555 34.621 25.8275V24.2474H35.283ZM18.6804 25.973C19.1065 25.973 19.3804 26.2385 19.4503 26.7059H17.872C17.9426 26.2697 18.2092 25.973 18.6804 25.973ZM17.1786 26.9714C17.1786 26.0294 17.802 25.3848 18.6935 25.3848C19.5457 25.3848 20.1313 26.0294 20.1378 26.9714C20.1378 27.0597 20.1313 27.1422 20.1247 27.2239H17.8661C17.9615 27.768 18.3497 27.9641 18.7758 27.9641C19.081 27.9641 19.4058 27.8498 19.6608 27.6479L19.9849 28.1348C19.6156 28.4445 19.1961 28.5581 18.738 28.5581C17.8275 28.5581 17.1786 27.9323 17.1786 26.9714ZM26.6791 26.9714C26.6791 26.4404 27.0294 26.0041 27.6019 26.0041C28.1489 26.0041 28.5182 26.4215 28.5182 26.9714C28.5182 27.5213 28.1489 27.9388 27.6019 27.9388C27.0294 27.9388 26.6791 27.5025 26.6791 26.9714ZM29.1416 25.4607V26.9714V28.4821H28.4803V28.1153C28.2698 28.3874 27.9523 28.5581 27.5196 28.5581C26.6667 28.5581 25.9981 27.8946 25.9981 26.9714C25.9981 26.0489 26.6667 25.3848 27.5196 25.3848C27.9523 25.3848 28.2698 25.5555 28.4803 25.8275V25.4607H29.1416ZM22.9441 26.9714C22.9441 27.8881 23.5865 28.5581 24.5669 28.5581C25.025 28.5581 25.3302 28.4568 25.6608 28.1978L25.3433 27.6667C25.0949 27.844 24.8342 27.9388 24.5472 27.9388C24.0192 27.9323 23.6309 27.5531 23.6309 26.9714C23.6309 26.3897 24.0192 26.0106 24.5472 26.0041C24.8342 26.0041 25.0949 26.0989 25.3433 26.2761L25.6608 25.7451C25.3302 25.486 25.025 25.3848 24.5669 25.3848C23.5865 25.3848 22.9441 26.0547 22.9441 26.9714ZM30.6688 25.8276C30.8407 25.562 31.0891 25.3848 31.4707 25.3848C31.6048 25.3848 31.7956 25.4101 31.942 25.4672L31.738 26.0866C31.5982 26.0294 31.4584 26.0106 31.3243 26.0106C30.8917 26.0106 30.6754 26.2884 30.6754 26.7884V28.4822H30.0133V25.4607H30.6688V25.8276ZM13.7422 25.7009C13.4239 25.4926 12.9855 25.3848 12.5019 25.3848C11.7313 25.3848 11.2353 25.7516 11.2353 26.3521C11.2353 26.8448 11.6045 27.1487 12.2848 27.2435L12.5973 27.2876C12.96 27.3383 13.1312 27.433 13.1312 27.6038C13.1312 27.8375 12.8893 27.9706 12.4378 27.9706C11.9796 27.9706 11.649 27.8252 11.4261 27.6544L11.1144 28.166C11.4771 28.4315 11.9352 28.5581 12.4312 28.5581C13.3096 28.5581 13.8187 28.1471 13.8187 27.5719C13.8187 27.0409 13.4181 26.7631 12.7561 26.6683L12.4443 26.6234C12.1581 26.5858 11.9287 26.5294 11.9287 26.3268C11.9287 26.1054 12.145 25.973 12.5077 25.973C12.8959 25.973 13.2717 26.1184 13.456 26.232L13.7422 25.7009ZM21.4743 25.8276C21.6455 25.562 21.8939 25.3848 22.2755 25.3848C22.4095 25.3848 22.6004 25.4101 22.7468 25.4672L22.5428 26.0866C22.403 26.0294 22.2631 26.0106 22.1291 26.0106C21.6965 26.0106 21.4802 26.2884 21.4802 26.7884V28.4822H20.8188V25.4607H21.4743V25.8276ZM16.6315 25.4607H15.5499V24.544H14.8813V25.4607H14.2644V26.0612H14.8813V27.4395C14.8813 28.1406 15.1551 28.5581 15.9374 28.5581C16.2244 28.5581 16.555 28.4698 16.7648 28.3244L16.574 27.7615C16.3766 27.8751 16.1603 27.9323 15.9884 27.9323C15.6577 27.9323 15.5499 27.7297 15.5499 27.4265V26.0612H16.6315V25.4607ZM6.74287 26.5858V28.4822H6.07426V26.8007C6.07426 26.2884 5.85794 26.0041 5.40637 26.0041C4.96718 26.0041 4.662 26.2827 4.662 26.8072V28.4822H3.99338V26.8007C3.99338 26.2884 3.77124 26.0041 3.33205 26.0041C2.87975 26.0041 2.58696 26.2827 2.58696 26.8072V28.4822H1.91907L1.91907 25.4607H2.58113V25.8334C2.82949 25.4796 3.14705 25.3848 3.47189 25.3848C3.93657 25.3848 4.26724 25.5874 4.477 25.9223C4.75741 25.4984 5.158 25.3783 5.54621 25.3848C6.28475 25.3913 6.74287 25.8717 6.74287 26.5858Z" fill="#231F20"/>
<path d="M23.5465 20.3269H13.5231V2.43286H23.5465V20.3269Z" fill="#FF5F00"/>
<path d="M14.159 11.3803C14.159 7.75039 15.8698 4.51698 18.5341 2.43325C16.5858 0.909521 14.1269 5.91278e-05 11.4546 5.91278e-05C5.12825 5.91278e-05 0 5.09508 0 11.3803C0 17.6655 5.12825 22.7605 11.4546 22.7605C14.1269 22.7605 16.5858 21.851 18.5341 20.3273C15.8698 18.2436 14.159 15.0102 14.159 11.3803Z" fill="#EB001B"/>
<path d="M37.069 11.3803C37.069 17.6655 31.9408 22.7605 25.6144 22.7605C22.9421 22.7605 20.4832 21.851 18.5342 20.3273C21.1992 18.2436 22.9101 15.0102 22.9101 11.3803C22.9101 7.75039 21.1992 4.51698 18.5342 2.43325C20.4832 0.909521 22.9421 5.91278e-05 25.6144 5.91278e-05C31.9408 5.91278e-05 37.069 5.09508 37.069 11.3803Z" fill="#F79E1B"/>
</svg>
