<svg width="49" height="14" viewBox="0 0 49 14" fill="none" xmlns="http://www.w3.org/2000/svg">
<path fill-rule="evenodd" clip-rule="evenodd" d="M4.528 0.00226622C4.54916 0.00214033 4.57235 0.00174803 4.59737 0.00132464C5.0895 -0.00700311 6.29218 -0.0273548 6.81623 1.7312C7.18718 2.976 7.77808 5.01505 8.58893 7.84835H8.91916C9.78873 4.86129 10.3861 2.82224 10.7112 1.7312C11.2343 -0.0242785 12.4952 -0.00706887 13.1066 0.00127641C13.1456 0.00180756 13.1818 0.0023028 13.2151 0.0023028L17.5081 0.00230812V13.2802H13.1326V5.45532H12.8392L10.4001 13.2802H7.10804L4.66891 5.44952H4.37551V13.2802H0V0.00230812L4.528 0.00226622ZM23.7913 0.00271733V7.83343H24.1403L27.1073 1.39429C27.6833 0.112884 28.9108 0.00271733 28.9108 0.00271733H33.145V13.2806H28.6781V5.44993H28.329L25.4202 11.8891C24.8443 13.1647 23.5586 13.2806 23.5586 13.2806H19.3244V0.00271733H23.7913ZM43.8382 9.32503C46.0046 9.32503 47.9613 8.06773 48.5844 6.31215H34.9061V13.2803H39.1538V9.32503H43.8382Z" fill="#40A548"/>
<path d="M44.1404 0.199951H34.9656C35.1839 2.89382 37.6937 5.19995 40.2918 5.19995H48.8813C49.377 2.96103 47.6706 0.199951 44.1404 0.199951Z" fill="#1291D0"/>
</svg>
