<svg width="50" height="18" viewBox="0 0 50 18" fill="none" xmlns="http://www.w3.org/2000/svg">
<path d="M21.5417 17.1314H17.8503L20.1592 0.616211H23.8503L21.5417 17.1314Z" fill="#15195A"/>
<path d="M35.8503 1.29684C35.0613 0.973369 33.8098 0.616211 32.2623 0.616211C28.3118 0.616211 25.5299 2.79306 25.5129 5.90531C25.4801 8.20151 27.5046 9.47688 29.0189 10.2425C30.5665 11.0249 31.0926 11.5355 31.0926 12.2329C31.0769 13.3039 29.842 13.7976 28.6903 13.7976C27.0932 13.7976 26.2374 13.5431 24.9369 12.9472L24.4101 12.6918L23.8503 16.2805C24.7886 16.7222 26.5172 17.1142 28.3118 17.1314C32.5093 17.1314 35.242 14.9882 35.2744 11.6716C35.2903 9.85167 34.2213 8.45718 31.9165 7.31766C30.5173 6.58617 29.6605 6.09293 29.6605 5.34448C29.6769 4.66407 30.3852 3.96716 31.9646 3.96716C33.2651 3.93303 34.2206 4.25605 34.9445 4.5793L35.3063 4.74907L35.8503 1.29684Z" fill="#15195A"/>
<path fill-rule="evenodd" clip-rule="evenodd" d="M43.3609 0.616211H46.5374L49.8504 16.9157H46.0481C46.0481 16.9157 45.676 15.0429 45.5581 14.4706H40.2855C40.1331 14.9039 39.4237 16.9157 39.4237 16.9157H35.1147L41.2146 1.9686C41.6372 0.910751 42.3814 0.616211 43.3609 0.616211ZM43.108 6.58109C43.108 6.58109 41.8066 10.2052 41.4684 11.1416H44.8818C44.7129 10.3267 43.9353 6.42506 43.9353 6.42506L43.6483 5.02058C43.5274 5.38225 43.3526 5.87948 43.2348 6.21485C43.1549 6.44219 43.1011 6.59515 43.108 6.58109Z" fill="#15195A"/>
<path fill-rule="evenodd" clip-rule="evenodd" d="M0.0675936 0.616211H6.6747C7.57026 0.650551 8.29695 0.945321 8.53341 1.98635L9.96922 9.47493C9.9694 9.47556 9.96959 9.47619 9.96977 9.47683L10.4092 11.731L14.4309 0.616211H18.7733L12.3185 16.8986H7.97587L4.31567 2.73565C3.05278 1.9779 1.61147 1.36847 0 0.945551L0.0675936 0.616211Z" fill="#15195A"/>
</svg>
