<svg width="45" height="45" viewBox="0 0 45 45" fill="none" xmlns="http://www.w3.org/2000/svg">
<g clip-path="url(#clip0)">
<path d="M41.702 28.7438C39.8515 27.6754 32.7157 24.7313 27.6155 23.6678C27.3792 22.9045 26.9734 22.2152 26.4429 21.6431C27.1223 19.5796 27.7043 17.0221 28.1537 14.5795C31.0177 16.1096 33.1639 18.7653 34.0269 21.9339C34.2182 22.6363 34.9427 23.0507 35.6453 22.8594C36.3477 22.668 36.7621 21.9435 36.5707 21.241C35.4384 17.0838 32.4998 13.6492 28.6091 11.8641C28.7591 10.8739 28.8813 9.95062 28.9728 9.1444C35.0029 11.5733 39.2312 17.3076 39.675 23.8741C39.722 24.5702 40.3014 25.1035 40.9889 25.1035C41.0188 25.1035 41.049 25.1025 41.0791 25.1004C41.8055 25.0513 42.3546 24.4227 42.3055 23.6962C41.7574 15.586 36.359 8.93399 29.1636 6.39861C29.0602 2.85389 26.1466 0.00140381 22.5772 0.00140381C18.9427 0.00140381 15.9858 2.95831 15.9858 6.59276C15.9858 8.69818 17.0605 16.6295 18.7115 21.643C18.181 22.2151 17.7752 22.9042 17.5388 23.6674C15.4487 24.1019 13.0061 24.849 10.7211 25.6528C10.6028 22.3566 11.8324 19.2189 14.1568 16.8749C14.6695 16.3579 14.6659 15.5232 14.149 15.0107C13.6319 14.498 12.7974 14.5014 12.2846 15.0185C9.13745 18.1922 7.7457 22.4305 8.14262 26.6067C7.21168 26.9681 6.35246 27.3204 5.61013 27.6413C4.68939 21.1111 7.55612 14.6788 13.0128 11.0016C13.6166 10.5948 13.7761 9.77546 13.3694 9.17174C12.9625 8.56802 12.1434 8.40841 11.5395 8.81525C4.98769 13.2303 1.699 21.0727 3.13557 28.8432C0.106859 30.7078 -0.90529 34.6459 0.885834 37.7478C2.6926 40.877 6.6926 41.9829 9.85692 40.1792C9.86782 40.173 9.87881 40.1667 9.88971 40.1604C9.88979 40.1604 9.88997 40.1603 9.88997 40.1603C11.6718 39.1315 17.9012 34.2946 21.4073 30.365C22.1748 30.5396 22.9622 30.5435 23.7463 30.3652C25.1357 31.928 26.9616 33.6618 28.7693 35.243C25.9658 37.0208 22.5642 37.534 19.3967 36.6977C18.6927 36.5118 17.9714 36.9318 17.7855 37.6356C17.5997 38.3396 18.0197 39.061 18.7236 39.2469C22.82 40.3284 27.2855 39.5712 30.8584 37.0121C31.6269 37.6418 32.3563 38.2157 33.0058 38.7053C27.7718 42.824 20.6977 43.4698 14.8885 40.6212C14.235 40.3008 13.445 40.5708 13.1245 41.2245C12.804 41.8782 13.0741 42.668 13.7278 42.9885C20.6227 46.3694 29.139 45.509 35.2753 40.252C38.3826 41.9325 42.3123 40.8695 44.1147 37.7479C45.9361 34.5928 44.8574 30.5655 41.702 28.7438ZM8.57135 37.877C6.67844 38.97 4.26207 38.3227 3.16897 36.4293C2.07596 34.5364 2.72336 32.1202 4.61653 31.027C6.09547 30.1732 12.6176 27.4956 17.4349 26.3879C17.6741 27.4447 18.2305 28.382 18.9998 29.0936C15.5899 32.7574 10.0017 37.0513 8.57135 37.877ZM22.5771 27.8607C21.1233 27.8607 19.9405 26.678 19.9405 25.2242C19.9405 23.7704 21.1233 22.5876 22.5771 22.5876C24.0309 22.5876 25.2136 23.7704 25.2136 25.2242C25.2136 26.678 24.0309 27.8607 22.5771 27.8607ZM24.1383 20.1872C23.1259 19.8728 22.0305 19.8721 21.0159 20.1872C19.5702 15.4245 18.6223 8.2321 18.6223 6.59276C18.6223 4.41211 20.3964 2.63795 22.5772 2.63795C24.7578 2.63795 26.532 4.41211 26.532 6.59276C26.5319 8.23693 25.5818 15.432 24.1383 20.1872ZM41.8313 36.4294C40.7384 38.3224 38.3223 38.9701 36.4289 37.877C34.8988 36.9936 29.4497 32.6482 26.1535 29.0944C26.9225 28.3833 27.4791 27.4465 27.7185 26.3904C32.4876 27.5019 38.9417 30.1946 40.3838 31.0271C42.2769 32.1202 42.9242 34.5364 41.8313 36.4294Z" fill="#626262"/>
</g>
<defs>
<clipPath id="clip0">
<rect width="45" height="45" fill="white"/>
</clipPath>
</defs>
</svg>
